<svg xmlns="http://www.w3.org/2000/svg" width="356" height="260"><path fill="#000" fill-opacity="0.05" d="M147.6.5L171 19.1v35.7l-56.9 59.6h-6.5L65 94.1v-6.4l92.1-35.4v-8.2l-110.9 25h-7.5L.5 30.2l3.6-9h157.1L147.6.5zm5.8 88.2L113 138l40-27.8-18.9 56.4 22.4-30.7v98.4l13.8 25.1V111.8c-9.3-3.1-15.2-10.4-16.9-23.1zm55-88.2L185 19.1v35.7l56.9 59.6h6.5l42.7-20.3v-6.4l-92.2-35.4v-8.2l110.9 25h7.5l38.2-38.9-3.6-9H194.8L208.4.5zm-5.7 88.2L243 138l-40-27.8 18.9 56.4-22.4-30.7v98.4l-13.8 25.1V111.8c9.3-3.1 15.3-10.4 17-23.1z"/></svg>
