<svg height="260" width="356" xmlns="http://www.w3.org/2000/svg"><path d="m147.6.5 23.4 18.6v35.7l-56.9 59.6h-6.5l-42.6-20.3v-6.4l92.1-35.4v-8.2l-110.9 25h-7.5l-38.2-38.9 3.6-9h157.1zm5.8 88.2-40.4 49.3 40-27.8-18.9 56.4 22.4-30.7v98.4l13.8 25.1v-147.6c-9.3-3.1-15.2-10.4-16.9-23.1zm55-88.2-23.4 18.6v35.7l56.9 59.6h6.5l42.7-20.3v-6.4l-92.2-35.4v-8.2l110.9 25h7.5l38.2-38.9-3.6-9h-157.1zm-5.7 88.2 40.3 49.3-40-27.8 18.9 56.4-22.4-30.7v98.4l-13.8 25.1v-147.6c9.3-3.1 15.3-10.4 17-23.1z" fill-opacity=".05"/></svg>