<svg xmlns="http://www.w3.org/2000/svg" width="310" height="238" viewBox="0 0 310 238"><g stroke="none" fill="none" fill-rule="evenodd"><g fill="rgba(255,255,255,0.05)" fill-rule="nonzero"><g transform="translate(242, 119) scale(-1, 1) translate(-242, -119) translate(174, 0)"><path d="M131 229.8C120.7 222.7 112.2 228.9 104.4 236 114.5 238.8 125.1 240 131 229.8ZM135 224.7C134.5 208.6 123.1 204.6 111.5 201.9 115.8 214.4 121.9 226.4 135 224.7ZM112.2 222.9C98.2 211.2 85 219.3 72.8 228.6 87.1 233.8 102.5 237 112.2 222.9ZM105.2 211.9C115.4 193.2 103.4 179.8 90.2 167.7 87.3 185.3 87 203.7 105.2 211.9ZM91.9 211.5C79.9 194 62.6 198.7 45.9 205.2 60.3 215.7 76.5 224.2 91.9 211.5ZM74.9 195.9C90.5 181.4 83.4 164.8 74.7 149.1 66.4 164.9 60.3 182.2 74.9 195.9ZM66.6 194.1C58.1 174.5 40.2 175.9 22.6 179.1 34.8 192.1 49.1 203.6 66.6 194.1ZM52.4 175.2C70.4 163.9 66.5 146.3 60.8 129.2 49.7 143.2 40.6 159.1 52.4 175.2ZM46.1 172.5C41.4 151.7 23.6 149.7 5.8 149.4 15.2 164.6 27.1 178.5 46.1 172.5ZM40.8 142C59.9 132.8 58.1 114.9 54.4 97.3 41.8 109.9 30.8 124.6 40.8 142ZM37.6 147.9C35.4 126.7 17.9 122.5 0.2 120.1 7.8 136.3 18 151.6 37.6 147.9ZM32.7 107.2C53.4 102.6 55.6 84.6 55.9 66.7 40.8 76.1 26.9 88 32.7 107.2ZM28.7 122.8C34.7 102.4 20.1 91.8 4.6 82.8 5.5 100.7 9.2 118.7 28.7 122.8ZM40.9 67C62.1 68 68.8 51.3 73.9 34.1 56.8 39.2 40.3 46.9 40.9 67ZM27.2 89.9C40 72.9 30 57.9 18.6 44 13.3 61.1 10.4 79.2 27.2 89.9ZM50.1 36.6C71.3 35.4 76.3 18 79.4 0.3 63 7.2 47.4 16.8 50.1 36.6ZM36.6 55C52.5 40.9 45.8 24.2 37.4 8.3 28.8 23.9 22.3 41.1 36.6 55Z"/></g><path d="M130.9 229.4C120.7 222.3 112.2 228.5 104.4 235.6 114.4 238.3 125.1 239.6 130.9 229.4ZM134.9 224.3C134.4 208.3 123.1 204.2 111.5 201.6 115.8 214.1 121.8 226 134.9 224.3ZM112.2 222.5C98.1 210.9 85 218.9 72.7 228.2 87.1 233.4 102.4 236.6 112.2 222.5ZM105.2 211.6C115.4 192.9 103.4 179.5 90.2 167.4 87.3 185 87 203.3 105.2 211.6ZM91.9 211.1C79.9 193.6 62.6 198.4 45.9 204.8 60.3 215.3 76.5 223.8 91.9 211.1ZM74.9 195.5C90.5 181.1 83.4 164.5 74.7 148.9 66.4 164.6 60.3 181.9 74.9 195.5ZM66.6 193.7C58.1 174.2 40.2 175.6 22.6 178.8 34.7 191.8 49.1 203.2 66.6 193.7ZM52.4 174.9C70.4 163.6 66.5 146 60.8 129 49.7 142.9 40.5 158.8 52.4 174.9ZM46.1 172.2C41.4 151.5 23.6 149.4 5.8 149.2 15.2 164.3 27.1 178.2 46.1 172.2ZM40.8 141.7C59.9 132.6 58.1 114.7 54.4 97.1 41.8 109.7 30.8 124.4 40.8 141.7ZM37.6 147.7C35.4 126.5 17.9 122.3 0.2 119.9 7.8 136.1 18 151.3 37.6 147.7ZM32.7 107C53.4 102.4 55.6 84.5 55.9 66.6 40.8 76 26.9 87.9 32.7 107ZM28.7 122.6C34.7 102.2 20.1 91.6 4.6 82.7 5.5 100.5 9.2 118.5 28.7 122.6ZM40.9 66.8C62 67.9 68.8 51.2 73.9 34 56.8 39.1 40.3 46.9 40.9 66.8ZM27.2 89.8C40 72.7 30 57.8 18.6 43.9 13.3 61 10.4 79.1 27.2 89.8ZM50.1 36.5C71.3 35.3 76.3 18 79.4 0.3 63 7.2 47.4 16.7 50.1 36.5ZM36.6 54.9C52.5 40.8 45.8 24.1 37.4 8.3 28.8 23.8 22.3 41 36.6 54.9Z"/></g></g></svg>